<?xml version="1.0" encoding="utf-8"?>
<!-- Generator: Adobe Illustrator 23.0.3, SVG Export Plug-In . SVG Version: 6.00 Build 0)  -->
<svg version="1.1" id="logosvg.com" xmlns="http://www.w3.org/2000/svg" xmlns:xlink="http://www.w3.org/1999/xlink" x="0px"
	 y="0px" viewBox="0 0 1133.9 850.4" style="enable-background:new 0 0 1133.9 850.4;" xml:space="preserve">
<style type="text/css">
	.st0{fill:#001489;}
</style>
<path id="logo" class="st0" d="M240.9,381.5H135.1c-2,0-3.6-1.6-3.6-3.6c0-0.6,0.1-1.1,0.4-1.6c11-21.9,37.7-30.7,59.6-19.7
	c4.5,2.3,8.6,5.3,12.1,8.9c0.7,0.7,1.6,1.1,2.6,1.1h27.4c2,0,3.6-1.6,3.6-3.6c0-0.6-0.1-1.2-0.4-1.7c-19.3-36-64.1-49.6-100.1-30.3
	c-22.8,12.2-37.5,35.3-39,61.1c-0.3,5.3,0,10.6,0.8,15.8c0.3,1.8,1.8,3,3.6,3h105.8c2,0,3.6,1.6,3.6,3.6c0,0.6-0.1,1.1-0.4,1.6
	c-11,21.9-37.7,30.7-59.6,19.7c-4.5-2.3-8.6-5.3-12.1-8.9c-0.7-0.7-1.6-1.1-2.6-1.1h-27.4c-2,0-3.6,1.6-3.6,3.6
	c0,0.6,0.1,1.2,0.4,1.7c19.3,36,64.1,49.6,100.1,30.3c22.8-12.2,37.5-35.3,39-61.1c0.3-5.3,0-10.6-0.8-15.8
	C244.2,382.8,242.7,381.5,240.9,381.5z M240.4,484.2H101.1c-2,0-3.6,1.6-3.6,3.6V510c0,2,1.6,3.6,3.6,3.6l0,0h139.3
	c2,0,3.6-1.6,3.6-3.6l0,0v-22.2C243.9,485.8,242.4,484.2,240.4,484.2z M412.6,397.8c0-1.1-0.1-2.3-0.1-3.4
	c-1.5-38.5-31.8-69.7-70.3-72.2c-15-0.8-29.8,3.2-42.5,11.2c-1.7,1.1-3.9,0.6-5-1.1c-0.4-0.6-0.6-1.3-0.6-2V326c0-2-1.6-3.7-3.6-3.7
	l0,0h-22.4c-2,0-3.6,1.7-3.6,3.7v204.9c0,2,1.6,3.7,3.6,3.7h22.4c2,0,3.6-1.7,3.6-3.7v-65.1c0-2,1.5-3.6,3.5-3.7
	c0.7,0,1.4,0.2,2,0.6c11.6,7.4,25.1,11.3,38.8,11.3C380,473.3,413.3,439.3,412.6,397.8z M294.3,397.3c0-0.7,0.1-1.5,0.1-2.2
	c1-24.5,21.7-43.5,46.2-42.5s43.5,21.7,42.5,46.2c0,0.7-0.1,1.5-0.1,2.2c-1,24.5-21.7,43.5-46.2,42.5S293.3,421.8,294.3,397.3z
	 M454.1,459.2c11.7,7.2,25.1,11,38.8,11c13.7,0,27.2-3.8,38.8-11c1.7-1.1,3.9-0.6,5,1.1c0.4,0.6,0.6,1.2,0.6,1.9v4.4
	c0,2,1.6,3.6,3.6,3.6h22.4c2,0,3.6-1.6,3.6-3.6V325.8c0-2-1.6-3.6-3.6-3.6h-22.4c-2,0-3.6,1.6-3.6,3.6v4.4c0,2-1.6,3.6-3.6,3.6
	c-0.7,0-1.3-0.2-1.9-0.6c-34.8-21.5-80.3-10.7-101.8,24.1C408.6,392.2,419.4,437.7,454.1,459.2z M493,351.8L493,351.8
	c24.5,0,44.4,19.9,44.4,44.4s-19.9,44.4-44.4,44.4c-24.5,0-44.4-19.9-44.4-44.4C448.6,371.7,468.5,351.8,493,351.8z M1007,489.5
	H313.4c-2.1,0.1-3.8,1.9-3.7,4v24.2c-0.1,2.1,1.6,3.9,3.7,4H1007c2.1-0.1,3.8-1.9,3.7-4v-24.2C1010.8,491.3,1009.1,489.5,1007,489.5
	z M930.3,470.2c40.8,0,74-33.1,74-74c0-40.8-33.1-74-74-74c-40.8,0-74,33.1-74,74l0,0C856.3,437,889.5,470.2,930.3,470.2z
	 M886,396.3c0-24.5,19.9-44.4,44.4-44.4s44.4,19.9,44.4,44.4s-19.9,44.4-44.4,44.4C905.8,440.5,886,420.8,886,396.3L886,396.3z
	 M773.5,470.2c1.2,0,2.4,0.1,3.6,0.1c27.5,0.1,52.9-14.9,66.1-39.1c0.9-1.8,0.3-3.9-1.5-4.9c-0.5-0.3-1.1-0.4-1.7-0.4h-27.8
	c-1,0-2,0.4-2.7,1.1c-8.5,8.7-20.2,13.7-32.4,13.6c-24.5,0.3-44.6-19.3-45-43.8c-0.3-24.2,18.9-44.3,43.1-45
	c12.9-0.6,25.3,4.4,34.3,13.6c0.7,0.7,1.7,1.1,2.7,1.1h27.8c2,0,3.6-1.6,3.7-3.6c0-0.6-0.1-1.2-0.4-1.7
	c-19.9-36.4-65.6-49.8-102-29.8c-22.6,12.4-37.3,35.5-38.9,61.2C700.5,433.8,732.3,468.5,773.5,470.2z M590,470.2h22.9
	c2,0,3.7-1.6,3.7-3.6l0,0V397c0.1-24.6,19.8-44.7,44.4-45.3c10.8-0.3,21.4,3.3,29.8,10c1.7,1.3,4.1,1.1,5.4-0.6
	c0.1-0.1,0.2-0.3,0.3-0.4l11.5-19.4c0.9-1.6,0.5-3.6-1-4.7c-25-18-58.3-19.3-84.7-3.5c-1.7,1.1-4,0.6-5.1-1.2
	c-0.4-0.6-0.6-1.2-0.6-1.9v-4.4c0-2-1.7-3.6-3.7-3.6l0,0H590c-2,0-3.7,1.6-3.7,3.6v140.7C586.3,468.5,588,470.2,590,470.2z
	 M1018,324.7h-6.4V344h2.6v-7.2h3.9c2.1-0.1,3.8,1.6,3.9,3.6v3.6h2.6v-3.6c0-1.9-1-3.7-2.6-4.8c1.6-1.1,2.6-2.9,2.6-4.8
	C1024.4,327.3,1021.5,324.5,1018,324.7z M1018,334.3h-3.9v-7.2h3.9c2.1-0.1,3.8,1.6,3.9,3.6C1021.8,332.8,1020.1,334.3,1018,334.3z
	 M1017.1,315.8L1017.1,315.8c-10.7,0-19.3,8.6-19.3,19.3c0,10.7,8.6,19.3,19.3,19.3s19.3-8.6,19.3-19.3
	C1036.5,324.5,1027.9,315.8,1017.1,315.8z M1017.1,351.2L1017.1,351.2L1017.1,351.2c-8.9,0-16.1-7.2-16.1-16.1
	c0-8.9,7.2-16.1,16.1-16.1c8.9,0,16.1,7.2,16.1,16.1l0,0C1033.3,344,1026.1,351.2,1017.1,351.2z"/>
</svg>
